<?xml version="1.0" encoding="utf-8"?>
<!-- Generator: Adobe Illustrator 21.0.0, SVG Export Plug-In . SVG Version: 6.00 Build 0)  -->
<svg version="1.1" id="Layer_1" xmlns="http://www.w3.org/2000/svg" xmlns:xlink="http://www.w3.org/1999/xlink" x="0px" y="0px"
	 viewBox="0 0 38 38" style="enable-background:new 0 0 38 38;" xml:space="preserve">
<style type="text/css">
	.st0{fill:#EF3829;}
	.st1{fill:#BCC0C4;}
</style>
<g>
	<g>
		<path d="M19,30.5c-6.3,0-11.5-5.2-11.5-11.5S12.7,7.5,19,7.5S30.5,12.7,30.5,19S25.3,30.5,19,30.5z M19,8.6
			C13.3,8.6,8.6,13.3,8.6,19S13.3,29.4,19,29.4S29.4,24.7,29.4,19S24.7,8.6,19,8.6z"/>
	</g>
	<g>
		<polygon class="st0" points="14.1,15.9 17.2,19 14.1,22.1 15.9,23.9 19,20.8 22.1,23.9 23.9,22.1 20.8,19 23.9,15.9 22.1,14.1 
			19,17.2 15.9,14.1 		"/>
		<path d="M22.1,24.7L19,21.6l-3.1,3.1l-2.6-2.6l3.1-3.1l-3.1-3.1l2.6-2.6l3.1,3.1l3.1-3.1l2.6,2.6L21.6,19l3.1,3.1L22.1,24.7z
			 M14.9,22.1l1,1L19,20l3.1,3.1l1-1L20,19l3.1-3.1l-1-1L19,18l-3.1-3.1l-1,1L18,19L14.9,22.1z"/>
	</g>
	<g>
		<g>
			<path class="st1" d="M36.9,21l-1.1-0.1c0-0.4,0.1-0.8,0.1-1.2C36.2,10.4,29,2.5,19.7,2.1V1C29.6,1.4,37.4,9.8,37,19.7
				C37,20.1,36.9,20.6,36.9,21z"/>
		</g>
		<g>
			<path class="st1" d="M3.1,27.4c-1.5-2.8-2.2-5.9-2-9.1c0.3-6.9,4.4-13,10.8-15.8l0.5,1c-6.1,2.7-10,8.3-10.2,14.8
				c-0.1,3,0.5,5.9,1.9,8.5L3.1,27.4z"/>
		</g>
		<g>
			<path class="st1" d="M19,37c-0.2,0-0.5,0-0.7,0c-3.6-0.1-7-1.4-9.9-3.5L9,32.6c2.7,2,5.9,3.1,9.3,3.3c6,0.2,11.7-2.8,14.9-7.8
				l1,0.6C30.9,33.8,25.1,37,19,37z"/>
		</g>
		<g>
			<path class="st1" d="M26.9,31.8l-0.6-1c0.3-0.2,0.5-0.3,0.8-0.5c6.2-4.4,7.6-13,3.2-19.2l0.9-0.7c4.8,6.7,3.2,16-3.5,20.8
				C27.5,31.4,27.2,31.6,26.9,31.8z"/>
		</g>
	</g>
</g>
</svg>
