<svg width="2447" height="1870" xmlns="http://www.w3.org/2000/svg">
 <g>
  <title>Layer 1</title>
  <g id="l7XEBnJczKJQHtsj1qFEu4x" fill="rgb(251,251,250)" stroke="null">
   <g id="svg_1" stroke="null">
    <path id="pFsFxqokV" d="m-53,939.5l0,-980l1275,0l1275,0l0,980l0,980l-1275,0l-1275,0l0,-980zm1450,854c80,-18 162,-48 215,-78c22,-13 59,-26 83,-30c48,-7 101,-56 102,-93c0,-14 6,-23 15,-23c8,0 38,-29 67,-65c44,-54 58,-65 83,-65c48,0 144,-28 197,-57c72,-39 144,-118 186,-202c36,-72 37,-79 37,-182c0,-106 0,-107 -43,-190c-34,-66 -57,-96 -107,-138c-64,-56 -181,-111 -219,-103c-15,3 -18,0 -13,-19c8,-30 -39,-118 -109,-203c-112,-136 -294,-250 -474,-297c-118,-31 -291,-32 -406,-1c-148,39 -324,133 -324,173c0,18 -9,19 -153,19l-153,0l-182,184l-182,184l0,493c0,375 3,500 13,519c7,13 28,35 46,47c34,23 37,23 364,23l330,0l43,25c61,36 212,84 296,94c87,11 199,5 288,-15z" stroke="null"/>
    <path id="p7ivMmTBZ" d="m112,1632.5c-46,-12 -45,1 -45,-514l0,-489l65,0c51,0 65,3 65,15c0,13 21,15 125,15l126,0l-3,-117l-3,-118l-27,-3c-27,-3 -28,-5 -28,-68l0,-64l673,0c510,0 676,3 685,12c8,8 12,58 12,160l0,148l-27,17c-16,9 -43,30 -61,45c-59,50 -62,44 -62,-107l0,-135l-535,0l-535,0l0,379l0,379l278,7c152,4 381,4 507,1l231,-8l38,56c37,53 97,110 144,135c22,12 23,16 20,124c-3,108 -4,112 -28,124c-20,10 -196,12 -810,12c-432,-1 -794,-4 -805,-6zm1465,-238l0,-25l-500,0l-500,0l0,25l0,25l500,0l500,0l0,-25z" stroke="null"/>
    <path id="p3ZlEdH2P" d="m1797,1544.5c0,-8 7,-15 15,-15c8,0 15,7 15,15c0,8 -7,15 -15,15c-8,0 -15,-7 -15,-15z" stroke="null"/>
    <path id="pQxpQI5Hq" d="m1797,1444.5c0,-8 7,-15 15,-15c8,0 15,7 15,15c0,8 -7,15 -15,15c-8,0 -15,-7 -15,-15z" stroke="null"/>
    <path id="pKbGsLI02" d="m1867,1398.5c-211,-41 -357,-254 -320,-466c22,-131 109,-246 228,-301c52,-25 68,-27 177,-27c112,0 124,2 180,29c77,38 153,114 191,191c27,56 29,68 29,175c0,104 -3,121 -27,172c-80,171 -268,264 -458,227zm169,-349c83,-87 151,-163 150,-167c0,-4 -17,-22 -37,-39l-37,-32l-108,119c-60,65 -116,119 -125,119c-10,-1 -35,-19 -57,-40l-40,-40l-39,40l-40,39l85,80c46,44 87,80 90,81c4,0 75,-72 158,-160z" stroke="null"/>
    <path id="pDUrKv79h" d="m587,809.5l0,-330l485,0l485,0l0,168c0,143 -3,175 -20,219c-22,58 -28,140 -16,221l8,52l-96,0l-96,0l0,-60c0,-51 -4,-64 -30,-93c-16,-18 -47,-42 -70,-52c-44,-20 -47,-27 -25,-78c23,-56 20,-147 -8,-188c-68,-101 -179,-104 -251,-6c-28,38 -35,151 -12,195c9,17 16,36 16,41c0,6 -22,22 -49,35c-76,39 -101,75 -101,147l0,59l-110,0l-110,0l0,-330z" stroke="null"/>
    <path id="pj4e0rE5R" d="m1005,870.5c-32,-28 -33,-32 -33,-106c0,-74 1,-78 33,-106c45,-40 99,-40 144,0c31,27 32,32 33,106c0,74 -1,78 -33,106c-45,40 -99,40 -144,0z" stroke="null"/>
    <path id="p1Aq2gnsWq" d="m1787,298.5c0,-14 -25,-39 -39,-39c-6,0 -11,-7 -11,-15c0,-8 7,-15 15,-15c8,0 15,5 15,10c0,6 7,10 15,10c8,0 15,7 15,15c0,8 5,15 10,15c6,0 10,7 10,15c0,8 -7,15 -15,15c-8,0 -15,-5 -15,-11z" stroke="null"/>
   </g>
  </g>
  <g id="l7POXeGr8crO5zPrQmjwsaz" fill="rgb(230,230,230)">
   <g id="svg_2">
    <path id="p4Ab0hGf4" d="m1152,1860c-86,-11 -235,-59 -300,-98l-47,-27l233,-3c128,-1 335,-1 460,0l227,3l-45,27c-133,79 -351,120 -528,98z"/>
    <path id="pIfAJ7MS1" d="m1850,1544c0,-95 -5,-91 93,-70l58,12l-58,69c-32,37 -66,69 -75,71c-16,2 -18,-8 -18,-82z"/>
    <path id="pmUmJ5jZl" d="m1660,690c0,-19 3,-21 12,-12c9,9 9,15 0,24c-9,9 -12,7 -12,-12z"/>
    <path id="prJyK05lE" d="m1852,478c3,-122 1,-145 -11,-140c-10,4 -13,0 -9,-15c4,-15 1,-20 -11,-19c-9,0 -15,-4 -14,-10c1,-6 -6,-10 -15,-10c-9,0 -253,-1 -542,-2c-514,-2 -526,-2 -527,-22c-3,-41 176,-141 328,-182c119,-31 309,-31 429,0c243,65 459,231 566,436c21,39 45,76 53,83c14,11 12,12 -12,13c-16,0 -26,-4 -23,-8c4,-8 -65,-2 -167,14l-48,7l3,-145z"/>
   </g>
  </g>
  <g id="l1a473DUSZ1szgwSGCHdIdu" fill="rgb(203,202,204)">
   <g id="svg_3">
    <path id="pr5Qaqmcr" d="m620,1435l0,-35l510,0l510,0l0,35l0,35l-510,0l-510,0l0,-35z"/>
   </g>
  </g>
  <g id="l3Qth2I1ofunlMe98rcjn15" fill="rgb(177,175,176)">
   <g id="svg_4"/>
  </g>
  <g id="l1piaGL1elC8PrxSx0paRmT" fill="rgb(148,146,147)">
   <g id="svg_5"/>
  </g>
  <g id="l1nGD8XMWnzR1rCs2LwE715" fill="rgb(225,55,41)">
   <g id="svg_6">
    <path id="pgBLwvXaK" d="m1848,1166c-38,-35 -68,-70 -68,-78c0,-20 32,-48 55,-48c11,0 37,17 58,38l38,37l112,-118c62,-65 119,-117 127,-117c23,1 50,25 50,44c0,23 -269,306 -289,306c-9,-1 -46,-29 -83,-64z"/>
    <path id="p6YU9eRUb" d="m910,1121c0,-53 3,-62 28,-81c48,-39 94,-52 182,-54c92,-3 142,10 198,51c30,22 32,28 32,84l0,59l-220,0l-220,0l0,-59z"/>
    <path id="pmLclF5bz" d="m122,668c3,-16 314,-338 327,-338c7,0 3,299 -4,318c-3,8 -33,12 -100,12c-69,0 -95,3 -95,13c0,8 -20,12 -65,12c-57,0 -65,-2 -63,-17z"/>
   </g>
  </g>
  <g id="l754VRtqIm91mdRtZuupguh" fill="rgb(106,106,107)">
   <g id="svg_7"/>
  </g>
  <g id="l32iSxfVOM3QXpZo5QYjVMa" fill="rgb(81,79,81)">
   <g id="svg_8"/>
  </g>
  <g id="l3AbX24dLSA61RBt9ktmCSd" fill="rgb(136,31,23)">
   <g id="svg_9"/>
  </g>
  <g id="l4yEFFtUou12xBZh7opzzzg" fill="rgb(48,47,47)">
   <g id="svg_10"/>
  </g>
  <g id="l7mVB4hO0EKAMwIzC2yhay9" fill="rgb(58,14,11)">
   <g id="svg_11"/>
  </g>
  <g id="l2BsACYYydqExkudoCkzz1b" fill="rgb(10,8,9)">
   <g id="svg_12">
    <path id="ptf5BV80W" d="m119,1717c-18,-12 -39,-34 -46,-47c-10,-19 -13,-146 -13,-529l0,-503l182,-184l182,-184l674,0c729,0 709,-1 746,54c13,20 16,51 16,157l0,132l33,-7c223,-48 424,50 520,251c30,64 32,74 32,183c0,109 -2,119 -32,183c-62,130 -185,229 -321,258c-54,11 -162,8 -209,-7c-23,-6 -23,-5 -23,90c0,96 0,97 -34,134l-34,37l-819,3l-820,2l-34,-23zm1651,-60c24,-12 25,-17 28,-114c3,-97 2,-102 -20,-114c-47,-25 -107,-81 -144,-135l-38,-55l-231,7c-126,4 -355,3 -507,-1l-278,-7l0,-389l0,-389l545,0l544,0l3,137l3,137l35,-30c19,-16 47,-38 63,-47l27,-17l0,-138c0,-94 -4,-142 -12,-150c-9,-9 -172,-12 -673,-12l-661,0l-162,163l-162,162l0,486c0,513 -1,500 45,512c11,2 369,5 795,6c606,0 780,-2 800,-12zm306,-228c123,-23 238,-112 292,-227c24,-50 27,-69 27,-162c0,-96 -3,-110 -29,-165c-38,-77 -114,-153 -191,-191c-55,-27 -69,-29 -170,-29c-98,0 -116,3 -167,27c-158,74 -258,255 -229,415c24,128 105,239 215,293c94,46 158,56 252,39zm-1226,-318c0,-72 25,-108 101,-147l49,-24l-16,-32c-24,-46 -16,-177 12,-215c74,-100 201,-98 271,6c18,27 23,48 23,103c0,39 -7,84 -15,105c-8,20 -14,37 -13,38c2,2 22,12 44,23c23,12 53,35 68,52c22,26 26,41 26,91l0,59l86,0l86,0l-8,-32c-14,-62 -7,-180 15,-238c18,-47 21,-77 21,-212l0,-158l-475,0l-475,0l0,320l0,320l100,0l100,0l0,-59zm490,10c0,-45 -3,-53 -32,-74c-53,-38 -94,-50 -178,-50c-84,0 -125,12 -177,50c-30,21 -33,29 -33,74l0,49l210,0l210,0l0,-49zm-148,-220c31,-28 33,-33 32,-97c0,-62 -3,-69 -32,-95c-42,-38 -82,-38 -124,0c-31,28 -33,33 -33,96c0,63 2,68 33,96c42,38 82,38 124,0z"/>
    <path id="pNkCQMpeA" d="m240,680l0,-29l98,-3l97,-3l3,-98l3,-98l32,3l32,3l3,128l3,127l-136,0l-135,0l0,-30z"/>
    <path id="p8lQVlPjf" d="m1831,1179l-95,-89l44,-45c24,-25 49,-45 55,-45c6,0 29,18 50,40c21,22 42,40 46,40c4,0 55,-53 114,-117c59,-65 112,-120 117,-121c8,-4 90,63 96,79c3,8 -316,349 -326,349c-4,-1 -49,-41 -101,-91zm242,-103c75,-79 137,-148 137,-153c0,-4 -10,-14 -22,-22c-21,-13 -28,-8 -139,110l-117,124l-44,-42c-50,-49 -58,-51 -83,-23c-17,19 -16,21 51,84c38,36 71,65 75,66c3,0 67,-65 142,-144z"/>
   </g>
  </g>
 </g>

</svg>