<svg width="1545" height="1494" xmlns="http://www.w3.org/2000/svg">

 <g>
  <title>Layer 1</title>
  <g fill="rgb(253,253,253)" id="l7JcpQLXIRTtsxBl7QVboFs">
   <g id="svg_1">
    <path d="m0,750l0,-750l795,0l795,0l0,750l0,750l-795,0l-795,0l0,-750zm783,135c20,-20 37,-38 37,-41c0,-3 41,-51 91,-105c90,-97 92,-100 74,-119c-10,-11 -21,-20 -26,-20c-4,0 -47,45 -95,100c-81,91 -92,100 -125,100c-25,0 -42,-7 -59,-25l-24,-25l-23,22l-24,22l63,63c34,35 65,63 68,63c3,0 22,-16 43,-35z" id="p62Qc8tWp"/>
   </g>
  </g>
  <g fill="rgb(230,230,231)" id="l3lGvlWbyU8RMQiabKj73g">
   <g id="svg_2">
    <path d="m385,1343c-11,-11 -12,-18 -3,-32c11,-18 12,-18 32,0c11,11 23,19 28,19c4,0 8,4 8,9c0,16 -51,19 -65,4z" id="paY9r9TNh"/>
   </g>
  </g>
  <g fill="rgb(197,198,202)" id="l1zNsz76ZGdRTp70WJmXixD">
   <g id="svg_3">
    <path d="m685,1470c-77,-12 -156,-41 -239,-87c-62,-34 -78,-54 -57,-67c5,-4 49,14 98,38c124,62 206,80 340,73c129,-6 209,-29 308,-88c91,-55 141,-97 194,-164c47,-59 48,-60 70,-46c18,11 1,40 -63,109c-162,176 -419,267 -651,232z" id="p14hRhNQ9s"/>
    <path d="m1103,1243c-5,-12 4,-24 28,-42c58,-43 126,-121 157,-180c89,-167 92,-343 11,-512c-39,-81 -41,-109 -5,-96c24,9 76,122 93,201c48,230 -28,455 -205,604c-55,46 -69,51 -79,25z" id="pYcfDmBOL"/>
    <path d="m1030,1126c0,-22 4,-26 30,-26c27,0 29,2 18,20c-7,10 -14,17 -17,15c-2,-3 -10,0 -18,6c-10,9 -13,6 -13,-15z" id="pSEMxocxu"/>
    <path d="m135,1043c-45,-106 -59,-178 -58,-288c1,-217 66,-376 215,-523c104,-102 233,-171 233,-123c0,8 -9,19 -20,25c-208,117 -329,269 -370,462c-28,132 -13,299 36,414c11,27 18,54 14,59c-13,22 -35,10 -50,-26z" id="pazV7EbPY"/>
    <path d="m1200,927c0,-30 4,-37 19,-37c25,0 24,28 -1,54c-18,19 -18,19 -18,-17z" id="p1CifLgv1E"/>
    <path d="m810,880c0,-25 4,-30 24,-30c18,0 23,4 19,18c-2,10 -13,23 -24,30c-17,11 -19,9 -19,-18z" id="p17SL0ClWG"/>
    <path d="m1480,753c-1,-336 -241,-621 -569,-676c-67,-12 -76,-16 -79,-37c-4,-22 -2,-23 40,-16c224,35 383,126 508,291c85,113 129,230 145,386c9,85 0,129 -26,129c-17,0 -19,-8 -19,-77z" id="pH0slXWo8"/>
   </g>
  </g>
  <g fill="rgb(172,170,171)" id="l43Ebp6NbUHUbxTsYLmb0nB">
   <g id="svg_4"/>
  </g>
  <g fill="rgb(142,141,142)" id="l4FDUUpqMjT1s3hkcUGrjc1">
   <g id="svg_5"/>
  </g>
  <g fill="rgb(226,51,33)" id="l7R6jTKMS2WlEnDdY3WuWCC">
   <g id="svg_6">
    <path d="m647,882c-44,-44 -57,-64 -57,-88c0,-39 16,-54 59,-54c24,0 43,8 62,25l26,26l94,-106c86,-96 97,-105 129,-105c45,0 60,15 60,58c0,31 -15,51 -126,168c-154,164 -159,165 -247,76z" id="pXrK2ZeSu"/>
   </g>
  </g>
  <g fill="rgb(102,102,103)" id="l7RNFkW0pvMOCh9mE1bp8gc">
   <g id="svg_7"/>
  </g>
  <g fill="rgb(164,36,24)" id="lBtdlCyZjgoJcy8WZK5Q6A">
   <g id="svg_8"/>
  </g>
  <g fill="rgb(73,73,73)" id="l1RxK7eDLusPRMkuyxgNnGa">
   <g id="svg_9"/>
  </g>
  <g fill="rgb(43,44,44)" id="lGWfSPxuiOlXmhlUsSG8G9">
   <g id="svg_10"/>
  </g>
  <g fill="rgb(82,19,14)" id="l3iaTGmI89MlblgWFF7Kw6J">
   <g id="svg_11"/>
  </g>
  <g fill="rgb(12,9,9)" id="l3kMAZr0Lf5XzpBIYiGVSyk">
   <g id="svg_12">
    <path d="m656,1189c-169,-58 -288,-199 -316,-374c-33,-210 97,-427 301,-503c160,-59 337,-24 466,92c223,200 199,560 -47,725c-120,80 -278,103 -404,60zm311,-58c270,-127 334,-466 128,-677c-75,-77 -163,-116 -270,-122c-157,-8 -287,55 -375,183c-80,117 -93,284 -30,411c55,113 154,196 270,229c83,23 197,13 277,-24z" id="pNs8QUlTP"/>
    <path d="m642,887l-92,-93l48,-47c26,-26 52,-47 57,-47c5,0 26,17 47,37l38,37l57,-65c32,-35 81,-89 110,-119l52,-55l52,51l51,51l-156,171c-86,95 -160,172 -164,172c-4,0 -49,-42 -100,-93zm224,-112c119,-127 126,-137 111,-153c-15,-14 -19,-14 -31,-2c-7,8 -57,64 -111,123l-98,108l-43,-42c-37,-36 -45,-40 -59,-29c-14,12 -10,20 42,72c31,32 58,58 59,58c1,0 59,-61 130,-135z" id="paATulgcL"/>
   </g>
  </g>
 </g>
</svg>